<?xml version="1.0" encoding="utf-8"?>
<?xml-stylesheet type="text/xsl" href="rss1.xsl"?>
<rss version="2.0" xmlns:atom="http://www.w3.org/2005/Atom" xmlns:content="http://purl.org/rss/1.0/modules/content/" xmlns:dc="http://purl.org/dc/elements/1.1/" xmlns:media="http://search.yahoo.com/mrss/">
<channel>
 <title>Getty</title>
 <link>http://www.gettyimg.com/</link>
 <atom:link href="http://www.gettyimg.com/" rel="self" type="application/rss+xml" />

 
                <item>
                <title><![CDATA[【Apple Music】WEB-RiP - Olivia Rodrigo - get him back! |Apple Music 4K|]]></title>
                <link><![CDATA[https://sharemania.us/threads/olivia-rodrigo-get-him-back-apple-music-4k.228284/]]></link>
                <description><![CDATA[<article>
<blockquote class="messageText SelectQuoteContainer ugc baseHtml">
<div style="text-align: center"><img src="https://i.imgur.com/XsaChPN.gif" class="bbCodeImage LbImage" alt="[​IMG]" data-url="https://i.imgur.com/XsaChPN.gif" style=""><br>
<br>
​</div>
<div class="ToggleTriggerAnchor bbCodeSpoilerContainer">
<button type="button" class="button bbCodeSpoilerButton ToggleTrigger Tooltip JsOnly" data-target="> .SpoilerTarget"><span>Spoiler: <span class="SpoilerTitle">Apple Music</span></span></button>
<div class="SpoilerTarget bbCodeSpoilerText">
<div class="bbCodeBlock bbCodeCode">
<div class="type">Code:</div>
<pre>Format                                   : Matroska
Format version                           : Version 4
File size                                : 481 MiB
Duration                                 : 3 min 29 s
Overall bit rate                         : 19.3 Mb/s
Writing application                      : mkvmerge v71.1.0 ('Fortitude') 64-bit
Writing library                          : libebml v1.4.4 + libmatroska v1.7.1

Video
ID                                       : 1
Format                                   : HEVC
Format/Info                              : High Efficiency Video Coding
Format profile                           : Main 10@L5@High
Codec ID                                 : V_MPEGH/ISO/HEVC
Duration                                 : 3 min 20 s
Bit rate                                 : 19.8 Mb/s
Width                                    : 3 840 pixels
Height                                   : 2 160 pixels
Display aspect ratio                     : 16:9
Frame rate mode                          : Constant
Frame rate                               : 23.976 (23976/1000) FPS
Color space                              : YUV
Chroma subsampling                       : 4:2:0
Bit depth                                : 10 bits
Bits/(Pixel*Frame)                       : 0.100
Stream size                              : 474 MiB (99%)
Default                                  : Yes
Forced                                   : No
Color range                              : Limited
Color primaries                          : BT.709
Transfer characteristics                 : BT.709
Matrix coefficients                      : BT.709

Audio
ID                                       : 2
Format                                   : AAC LC
Format/Info                              : Advanced Audio Codec Low Complexity
Codec ID                                 : A_AAC-2
Duration                                 : 3 min 29 s
Bit rate                                 : 278 kb/s
Channel(s)                               : 2 channels
Channel layout                           : L R
Sampling rate                            : 48.0 kHz
Frame rate                               : 46.875 FPS (1024 SPF)
Compression mode                         : Lossy
Stream size                              : 6.94 MiB (1%)
Default                                  : Yes
Forced                                   : No
</pre>
</div><div style="text-align: center">​</div></div>
</div><div style="text-align: center"><br>
<div class="bbCodeBlock bbCodeVfcHH HiddenContent">
<div class="attribution type">Hidden Content:</div>
<blockquote>You must reply before you can see the hidden data contained here.</blockquote>
</div></div>
<div class="messageTextEndMarker">&nbsp;</div>
</blockquote>
</article>]]></description>
                <author><![CDATA[fstambuk]]></author>
                </item>

                
                <item>
                <title><![CDATA[【Requests】[REQ AUD] - Shaznay Lewis Various in Flac/Wav/Alac]]></title>
                <link><![CDATA[https://sharemania.us/threads/shaznay-lewis-various-in-flac-wav-alac.228310/]]></link>
                <description><![CDATA[<article>
<blockquote class="messageText SelectQuoteContainer ugc baseHtml">
Thank uuu
<div class="messageTextEndMarker">&nbsp;</div>
</blockquote>
</article>]]></description>
                <author><![CDATA[Kieren]]></author>
                </item>

                
                <item>
                <title><![CDATA[【Requests】[REQ AUD] - Mauro Picotto]]></title>
                <link><![CDATA[https://sharemania.us/threads/mauro-picotto.228283/]]></link>
                <description><![CDATA[<article>
<blockquote class="messageText SelectQuoteContainer ugc baseHtml">
so quick!! thank you!
<div class="messageTextEndMarker">&nbsp;</div>
</blockquote>
</article>]]></description>
                <author><![CDATA[allan00958]]></author>
                </item>

                
                <item>
                <title><![CDATA[【Albums (lossless)】ALAC - The Beatles - 1 [ALAC 24bit-44.1kHz Apple Music WEB-DL]]]></title>
                <link><![CDATA[https://sharemania.us/threads/the-beatles-1-alac-24bit-44-1khz-apple-music-web-dl.228285/]]></link>
                <description><![CDATA[<article>
<blockquote class="messageText SelectQuoteContainer ugc baseHtml">
thanks
<div class="messageTextEndMarker">&nbsp;</div>
</blockquote>
</article>]]></description>
                <author><![CDATA[glomatico]]></author>
                </item>

                </channel></rss>